<?xml version="1.0" encoding="UTF-8"?>
<!DOCTYPE svg PUBLIC "-//W3C//DTD SVG 1.1//EN" "http://www.w3.org/Graphics/SVG/1.1/DTD/svg11.dtd">
<svg xmlns="http://www.w3.org/2000/svg" version="1.1" width="1081px" height="172px" style="shape-rendering:geometricPrecision; text-rendering:geometricPrecision; image-rendering:optimizeQuality; fill-rule:evenodd; clip-rule:evenodd" xmlns:xlink="http://www.w3.org/1999/xlink">
<g><path style="opacity:0.986" fill="#c50523" d="M 352.5,-0.5 C 352.833,-0.5 353.167,-0.5 353.5,-0.5C 356.08,5.66846 359.414,11.3351 363.5,16.5C 375.772,8.08409 389.105,2.41742 403.5,-0.5C 410.833,-0.5 418.167,-0.5 425.5,-0.5C 440.784,1.80273 454.784,7.4694 467.5,16.5C 471.097,10.9703 474.43,5.30362 477.5,-0.5C 478.167,-0.5 478.833,-0.5 479.5,-0.5C 483.401,5.61647 487.567,11.6165 492,17.5C 497.367,27.2435 497.867,37.2435 493.5,47.5C 502.595,72.476 502.762,97.476 494,122.5C 488.67,134.872 480.337,144.539 469,151.5C 468.333,150.5 468.333,149.5 469,148.5C 484.183,128.238 487.849,105.904 480,81.5C 478.861,77.8878 477.194,74.5544 475,71.5C 474.354,90.1214 467.854,106.288 455.5,120C 471.403,120.626 475.57,128.126 468,142.5C 460.461,149.654 453.795,148.987 448,140.5C 447.906,135.852 446.906,132.186 445,129.5C 430.915,137.793 416.748,145.96 402.5,154C 400.078,156.003 399.245,158.503 400,161.5C 402.079,163.79 404.579,165.457 407.5,166.5C 396.274,170.486 387.441,167.486 381,157.5C 381.333,160.167 381.667,162.833 382,165.5C 342.304,146.791 324.971,115.458 330,71.5C 331.903,63.4578 334.403,55.6245 337.5,48C 332.879,37.0433 333.713,26.5433 340,16.5C 343.688,10.4482 347.854,4.78156 352.5,-0.5 Z"/></g>
<g><path style="opacity:0.973" fill="#c50423" d="M -0.5,124.5 C -0.5,123.833 -0.5,123.167 -0.5,122.5C 6.65603,89.721 13.3227,56.721 19.5,23.5C 32.8333,23.5 46.1667,23.5 59.5,23.5C 59.1667,26.8333 58.8333,30.1667 58.5,33.5C 73.837,33.3334 89.1703,33.5001 104.5,34C 114.198,34.6502 119.865,39.6502 121.5,49C 115.314,79.4329 109.314,109.933 103.5,140.5C 90.8333,140.5 78.1667,140.5 65.5,140.5C 67.0376,130.812 68.7043,121.145 70.5,111.5C 63.8002,111.83 57.1335,111.497 50.5,110.5C 52.0896,104.219 53.4229,97.8853 54.5,91.5C 61.1998,91.83 67.8665,91.4967 74.5,90.5C 77.1074,78.2939 79.7741,66.1272 82.5,54C 72.8391,53.5002 63.1724,53.3335 53.5,53.5C 49.2181,76.9097 44.5514,100.243 39.5,123.5C 26.1833,124.499 12.85,124.833 -0.5,124.5 Z"/></g>
<g><path style="opacity:0.979" fill="#c50523" d="M 144.5,23.5 C 157.85,23.1675 171.183,23.5008 184.5,24.5C 192.524,43.0801 201.024,61.4134 210,79.5C 213.286,64.2362 216.12,48.9029 218.5,33.5C 232.171,33.3334 245.837,33.5001 259.5,34C 253.546,62.7677 247.713,91.601 242,120.5C 239.833,130.667 233.667,136.833 223.5,139C 213.552,140.531 203.552,140.865 193.5,140C 186.6,121.135 179.6,102.302 172.5,83.5C 167.988,102.392 163.988,121.392 160.5,140.5C 147.167,140.5 133.833,140.5 120.5,140.5C 128.249,101.42 136.249,62.4196 144.5,23.5 Z"/></g>
<g><path style="opacity:0.973" fill="#2a2928" d="M 1080.5,43.5 C 1080.5,47.5 1080.5,51.5 1080.5,55.5C 1074.22,83.5896 1068.55,111.923 1063.5,140.5C 1050.83,140.5 1038.17,140.5 1025.5,140.5C 1027.04,130.812 1028.7,121.145 1030.5,111.5C 1023.83,111.5 1017.17,111.5 1010.5,111.5C 1011.71,104.806 1013.04,98.1395 1014.5,91.5C 1021.2,91.83 1027.87,91.4967 1034.5,90.5C 1037.11,78.2939 1039.77,66.1272 1042.5,54C 1032.84,53.5002 1023.17,53.3335 1013.5,53.5C 1008.96,77.5254 1004.29,101.525 999.5,125.5C 986.167,125.5 972.833,125.5 959.5,125.5C 966.295,91.5244 972.962,57.5244 979.5,23.5C 992.833,23.5 1006.17,23.5 1019.5,23.5C 1019.17,26.8333 1018.83,30.1667 1018.5,33.5C 1033.84,33.3334 1049.17,33.5001 1064.5,34C 1071.6,34.3755 1076.93,37.5421 1080.5,43.5 Z"/></g>
<g><path style="opacity:0.976" fill="#2a2928" d="M 530.5,23.5 C 543.5,23.5 556.5,23.5 569.5,23.5C 569.277,26.7842 568.61,29.9509 567.5,33C 579.532,33.1915 591.532,33.8582 603.5,35C 607.664,35.823 610.831,37.9897 613,41.5C 613.822,38.8832 614.322,36.2165 614.5,33.5C 621.841,33.3337 629.174,33.5003 636.5,34C 644.785,33.5384 651.952,36.0384 658,41.5C 659.336,44.0094 660.17,46.676 660.5,49.5C 654.882,79.5882 648.882,109.588 642.5,139.5C 629.517,140.499 616.517,140.832 603.5,140.5C 609.038,111.475 614.705,82.4746 620.5,53.5C 617.5,53.5 614.5,53.5 611.5,53.5C 606.5,79.5 601.5,105.5 596.5,131.5C 583.5,131.5 570.5,131.5 557.5,131.5C 561.857,105.713 566.857,80.0467 572.5,54.5C 569.628,53.2175 566.795,53.2175 564,54.5C 559.304,76.8121 554.804,99.1455 550.5,121.5C 537.163,121.667 523.829,121.5 510.5,121C 517.36,88.5347 524.026,56.0347 530.5,23.5 Z"/></g>
<g><path style="opacity:0.973" fill="#2a2928" d="M 793.5,23.5 C 806.5,23.5 819.5,23.5 832.5,23.5C 831.331,29.4973 830.498,35.4973 830,41.5C 833.167,39 836.333,36.5 839.5,34C 852.167,33.3333 864.833,33.3333 877.5,34C 890.468,34.9579 895.968,41.7912 894,54.5C 889.333,77.8333 884.667,101.167 880,124.5C 875.99,133.932 868.823,139.099 858.5,140C 832.169,140.5 805.835,140.667 779.5,140.5C 780.39,133.884 781.723,127.384 783.5,121C 802.83,120.5 822.164,120.333 841.5,120.5C 845.192,98.7066 849.525,77.0399 854.5,55.5C 845.19,54.5017 835.857,54.1684 826.5,54.5C 822.448,73.4252 818.782,92.4252 815.5,111.5C 802.176,112.141 788.843,112.474 775.5,112.5C 781.249,82.7533 787.249,53.0866 793.5,23.5 Z"/></g>
<g><path style="opacity:0.974" fill="#c50423" d="M 280.5,33.5 C 293.837,33.3334 307.171,33.5001 320.5,34C 313.085,69.0761 305.918,104.243 299,139.5C 285.913,140.489 272.746,140.823 259.5,140.5C 266.116,104.754 273.116,69.0871 280.5,33.5 Z"/></g>
<g><path style="opacity:0.965" fill="#2a2928" d="M 671.5,33.5 C 707.167,33.5 742.833,33.5 778.5,33.5C 777.739,40.4703 776.406,47.3037 774.5,54C 758.49,54.1671 742.49,54.6671 726.5,55.5C 725.226,61.0403 723.893,66.5403 722.5,72C 738.497,72.4999 754.497,72.6666 770.5,72.5C 769.5,79.1667 768.5,85.8333 767.5,92.5C 751.167,92.5 734.833,92.5 718.5,92.5C 716.483,100.745 715.316,109.078 715,117.5C 715.833,118.333 716.667,119.167 717.5,120C 732.138,121.208 746.805,121.708 761.5,121.5C 760.039,127.474 758.705,133.474 757.5,139.5C 734.507,140.666 711.507,140.833 688.5,140C 679.14,139.469 673.807,134.635 672.5,125.5C 674.76,114.536 676.76,103.536 678.5,92.5C 672.5,92.5 666.5,92.5 660.5,92.5C 661.284,85.7987 662.284,79.132 663.5,72.5C 670.167,72.5 676.833,72.5 683.5,72.5C 684.629,66.1873 685.629,59.8539 686.5,53.5C 680.132,53.8297 673.798,53.4963 667.5,52.5C 669.091,46.2118 670.424,39.8785 671.5,33.5 Z"/></g>
<g><path style="opacity:0.971" fill="#2a2928" d="M 919.5,33.5 C 932.5,33.5 945.5,33.5 958.5,33.5C 951.991,68.5475 945.157,103.548 938,138.5C 931.405,139.813 924.572,140.48 917.5,140.5C 910.833,140.333 904.167,140.167 897.5,140C 904.898,104.51 912.231,69.0098 919.5,33.5 Z"/></g>
<g><path style="opacity:0.852" fill="#c30422" d="M 436.5,171.5 C 434.167,171.5 431.833,171.5 429.5,171.5C 428.298,169.608 426.965,167.774 425.5,166C 423.221,165.527 421.221,164.527 419.5,163C 429.66,164.446 438.327,161.613 445.5,154.5C 445.464,161.566 442.464,167.232 436.5,171.5 Z"/></g>
</svg>
